<svg width="24" viewBox="0 0 24 23" fill="none" xmlns="http://www.w3.org/2000/svg">
<path d="M10.9393 3.146H3.93933C3.4089 3.146 2.90019 3.35671 2.52512 3.73178C2.15004 4.10686 1.93933 4.61556 1.93933 5.146V19.146C1.93933 19.6764 2.15004 20.1851 2.52512 20.5602C2.90019 20.9353 3.4089 21.146 3.93933 21.146H17.9393C18.4698 21.146 18.9785 20.9353 19.3535 20.5602C19.7286 20.1851 19.9393 19.6764 19.9393 19.146V12.146" stroke="#6BC19E" stroke-width="2" stroke-linecap="round" stroke-linejoin="round"/>
<path d="M18.4393 1.64622C18.8372 1.2484 19.3767 1.0249 19.9393 1.0249C20.5019 1.0249 21.0415 1.2484 21.4393 1.64622C21.8372 2.04405 22.0607 2.58361 22.0607 3.14622C22.0607 3.70883 21.8372 4.2484 21.4393 4.64622L11.9393 14.1462L7.93933 15.1462L8.93933 11.1462L18.4393 1.64622Z" stroke="#6BC19E" stroke-width="2" stroke-linecap="round" stroke-linejoin="round"/>
</svg>