<svg width="20" viewBox="0 0 20 21" fill="none" xmlns="http://www.w3.org/2000/svg">
<path d="M17 1.146H3C1.89543 1.146 1 2.04143 1 3.146V17.146C1 18.2506 1.89543 19.146 3 19.146H17C18.1046 19.146 19 18.2506 19 17.146V3.146C19 2.04143 18.1046 1.146 17 1.146Z" stroke="#6BC19E" stroke-width="2" stroke-linecap="round" stroke-linejoin="round"/>
<path d="M6.5 8.146C7.32843 8.146 8 7.47442 8 6.646C8 5.81757 7.32843 5.146 6.5 5.146C5.67157 5.146 5 5.81757 5 6.646C5 7.47442 5.67157 8.146 6.5 8.146Z" stroke="#6BC19E" stroke-width="2" stroke-linecap="round" stroke-linejoin="round"/>
<path d="M19 13.146L14 8.146L3 19.146" stroke="#6BC19E" stroke-width="2" stroke-linecap="round" stroke-linejoin="round"/>
</svg>