<svg width="22" viewBox="0 0 22 22" fill="none" xmlns="http://www.w3.org/2000/svg">
<path d="M17.966 3L19.966 1L14.466 6.5M17.966 3L20.966 6L17.466 9.5L14.466 6.5M17.966 3L14.466 6.5M10.355 10.611C9.31766 9.60913 7.92835 9.05476 6.48627 9.06729C5.04418 9.07982 3.66472 9.65825 2.64497 10.678C1.62523 11.6977 1.0468 13.0772 1.03427 14.5193C1.02173 15.9614 1.5761 17.3507 2.57797 18.388C3.08744 18.9043 3.69401 19.3148 4.36276 19.5958C5.03152 19.8767 5.74924 20.0226 6.47461 20.025C7.19997 20.0275 7.91866 19.8864 8.58928 19.6099C9.25989 19.3334 9.8692 18.9271 10.3821 18.4141C10.895 17.9012 11.3014 17.2919 11.5779 16.6213C11.8544 15.9507 11.9954 15.232 11.993 14.5066C11.9906 13.7813 11.8447 13.0635 11.5637 12.3948C11.2828 11.726 10.8723 11.1195 10.356 10.61L10.355 10.611ZM10.355 10.611L14.466 6.5" stroke="#6BC19E" stroke-width="2" stroke-linecap="round" stroke-linejoin="round"/>
</svg>