<svg width="15" viewBox="0 0 15 16" fill="none" xmlns="http://www.w3.org/2000/svg">
<path d="M12.25 1.25C11.0095 1.25 10 2.2595 10 3.5C10 3.8765 10.102 4.226 10.2655 4.53875L9.4285 5.51525C8.93339 5.17894 8.34853 4.99941 7.75 5C7.19575 5 6.68125 5.162 6.235 5.4245L5.1745 4.364C5.38517 3.98482 5.4971 3.55876 5.5 3.125C5.5 1.6775 4.3225 0.5 2.875 0.5C1.4275 0.5 0.25 1.6775 0.25 3.125C0.25 4.5725 1.4275 5.75 2.875 5.75C3.32575 5.75 3.7435 5.6255 4.114 5.4245L5.1745 6.485C4.89979 6.94283 4.75318 7.46608 4.75 8C4.75 8.74775 5.035 9.42425 5.48875 9.95075L4.21975 11.2197L4.2385 11.2385C3.93187 11.0836 3.59351 11.002 3.25 11C2.0095 11 1 12.0095 1 13.25C1 14.4905 2.0095 15.5 3.25 15.5C4.4905 15.5 5.5 14.4905 5.5 13.25C5.5 12.893 5.40925 12.5607 5.2615 12.2615L5.28025 12.2803L6.74575 10.8148C7.0615 10.9272 7.396 11 7.75 11C9.4045 11 10.75 9.6545 10.75 8C10.7468 7.5341 10.634 7.0755 10.4208 6.66125L11.3605 5.56475C11.6335 5.68325 11.9335 5.75 12.25 5.75C13.4905 5.75 14.5 4.7405 14.5 3.5C14.5 2.2595 13.4905 1.25 12.25 1.25ZM3.25 14C3.05109 14 2.86032 13.921 2.71967 13.7803C2.57902 13.6397 2.5 13.4489 2.5 13.25C2.5 13.0511 2.57902 12.8603 2.71967 12.7197C2.86032 12.579 3.05109 12.5 3.25 12.5C3.44891 12.5 3.63968 12.579 3.78033 12.7197C3.92098 12.8603 4 13.0511 4 13.25C4 13.4489 3.92098 13.6397 3.78033 13.7803C3.63968 13.921 3.44891 14 3.25 14ZM1.75 3.125C1.75 2.50475 2.25475 2 2.875 2C3.49525 2 4 2.50475 4 3.125C4 3.74525 3.49525 4.25 2.875 4.25C2.25475 4.25 1.75 3.74525 1.75 3.125ZM7.75 9.5C6.92275 9.5 6.25 8.82725 6.25 8C6.25 7.17275 6.92275 6.5 7.75 6.5C8.57725 6.5 9.25 7.17275 9.25 8C9.25 8.82725 8.57725 9.5 7.75 9.5ZM12.25 4.25C12.0511 4.25 11.8603 4.17098 11.7197 4.03033C11.579 3.88968 11.5 3.69891 11.5 3.5C11.5 3.30109 11.579 3.11032 11.7197 2.96967C11.8603 2.82902 12.0511 2.75 12.25 2.75C12.4489 2.75 12.6397 2.82902 12.7803 2.96967C12.921 3.11032 13 3.30109 13 3.5C13 3.69891 12.921 3.88968 12.7803 4.03033C12.6397 4.17098 12.4489 4.25 12.25 4.25Z" fill="#8F979B"/>
</svg>
