<svg width="18" height="17" viewBox="0 0 18 17" fill="none" xmlns="http://www.w3.org/2000/svg">
<path d="M15 1H3C2.17157 1 1.5 1.67157 1.5 2.5V5.5C1.5 6.32843 2.17157 7 3 7H15C15.8284 7 16.5 6.32843 16.5 5.5V2.5C16.5 1.67157 15.8284 1 15 1Z" stroke="#8F979B" stroke-width="2" stroke-linecap="round" stroke-linejoin="round"/>
<path d="M15 10H3C2.17157 10 1.5 10.6716 1.5 11.5V14.5C1.5 15.3284 2.17157 16 3 16H15C15.8284 16 16.5 15.3284 16.5 14.5V11.5C16.5 10.6716 15.8284 10 15 10Z" stroke="#8F979B" stroke-width="2" stroke-linecap="round" stroke-linejoin="round"/>
<path d="M4.5 4H4.5075" stroke="#8F979B" stroke-width="2" stroke-linecap="round" stroke-linejoin="round"/>
<path d="M4.5 13H4.5075" stroke="#8F979B" stroke-width="2" stroke-linecap="round" stroke-linejoin="round"/>
</svg>
