<svg width="14" height="16" viewBox="0 0 14 16" fill="none" xmlns="http://www.w3.org/2000/svg">
<path d="M6.29764 0.414046L6.29766 0.41405L13.2887 1.79863C13.6122 1.8627 13.85 2.13771 13.85 2.46164V13.5383C13.85 13.6952 13.7934 13.8468 13.6908 13.9674C13.5882 14.0879 13.446 14.1702 13.2887 14.2013M6.29764 0.414046L13.2693 14.1032M6.29764 0.414046C6.19636 0.394009 6.09135 0.395215 5.99017 0.418917C5.88933 0.44254 5.79496 0.487439 5.71398 0.550618C5.63299 0.613808 5.56736 0.693759 5.52219 0.784872C5.477 0.876005 5.4535 0.975858 5.45357 1.07713M6.29764 0.414046L6.27823 0.512145C6.19056 0.494799 6.09994 0.495908 6.01298 0.516281C5.92602 0.536654 5.84489 0.575317 5.77549 0.629461C5.70609 0.683605 5.65017 0.751869 5.61178 0.829293C5.57339 0.906716 5.55351 0.991354 5.55357 1.07706M13.2887 14.2013L13.2693 14.1032M13.2887 14.2013L13.2887 14.2013L13.2693 14.1032M13.2887 14.2013L6.29766 15.5859L6.29764 15.5859C6.19615 15.606 6.09129 15.6042 5.99058 15.5807C5.88986 15.5571 5.79558 15.5124 5.71463 15.4494C5.63367 15.3864 5.56802 15.3066 5.52274 15.2157C5.47744 15.1248 5.45375 15.0251 5.45357 14.924L5.45357 14.9238L5.45357 1.07713M13.2693 14.1032L6.27823 15.4878C6.19068 15.5051 6.10019 15.5036 6.01333 15.4833C5.92648 15.463 5.84542 15.4245 5.77605 15.3705C5.70668 15.3165 5.65073 15.2484 5.61225 15.1711C5.57377 15.0939 5.55372 15.0094 5.55357 14.9238V1.07706M5.45357 1.07713L5.55357 1.07706M5.45357 1.07713V1.07706H5.55357M4.20714 1.53858V1.43858H4.10714H0.852679V1.43845L0.847451 1.43872L0.785736 1.44195L0.785731 1.44185L0.781285 1.44228C0.43038 1.47641 0.15 1.7614 0.15 2.11595V13.8849H0.149834L0.150165 13.8907L0.15354 13.9493L0.153417 13.9493L0.153948 13.9542C0.171999 14.1221 0.254333 14.2766 0.383679 14.3884C0.512911 14.5 0.680038 14.5613 0.852646 14.5614H0.852679H4.10714H4.20714V14.4614V13.3075V13.2075H4.10714H1.55536V2.7924H4.10714H4.20714V2.6924V1.53858ZM6.85893 14.0932V1.9077L12.4446 3.01362V12.9868L6.85893 14.0932ZM8.7859 7.43821C8.63121 7.29014 8.42231 7.20768 8.20536 7.20768C7.9884 7.20768 7.7795 7.29014 7.62482 7.43821C7.46999 7.58642 7.38214 7.7884 7.38214 7.99997C7.38214 8.21155 7.46999 8.41352 7.62482 8.56174C7.7795 8.70981 7.9884 8.79227 8.20536 8.79227C8.42231 8.79227 8.63121 8.70981 8.7859 8.56174C8.94073 8.41352 9.02857 8.21155 9.02857 7.99997C9.02857 7.7884 8.94073 7.58642 8.7859 7.43821Z" fill="#8F979B" stroke="#8F979B" stroke-width="0.2"/>
</svg>
