<svg width="17" viewBox="0 0 17 17" fill="none" xmlns="http://www.w3.org/2000/svg">
<path d="M10.025 4.7248C9.88759 4.865 9.81062 5.05349 9.81062 5.2498C9.81062 5.44612 9.88759 5.63461 10.025 5.7748L11.225 6.9748C11.3652 7.11222 11.5537 7.18919 11.75 7.18919C11.9463 7.18919 12.1348 7.11222 12.275 6.9748L15.1025 4.1473C15.4796 4.98069 15.5938 5.90923 15.4299 6.80916C15.2659 7.70909 14.8315 8.53769 14.1847 9.18451C13.5379 9.83134 12.7093 10.2657 11.8094 10.4296C10.9094 10.5936 9.98091 10.4794 9.14751 10.1023L3.96501 15.2848C3.66665 15.5832 3.26197 15.7508 2.84001 15.7508C2.41806 15.7508 2.01338 15.5832 1.71501 15.2848C1.41665 14.9864 1.24902 14.5818 1.24902 14.1598C1.24902 13.7378 1.41665 13.3332 1.71501 13.0348L6.89751 7.8523C6.52039 7.01891 6.4062 6.09038 6.57017 5.19044C6.73414 4.29051 7.16848 3.46192 7.8153 2.81509C8.46213 2.16827 9.29072 1.73393 10.1907 1.56996C11.0906 1.40599 12.0191 1.52018 12.8525 1.8973L10.0325 4.7173L10.025 4.7248Z" stroke="#8F979B" stroke-width="2" stroke-linecap="round" stroke-linejoin="round"/>
</svg>
