<svg width="16" viewBox="0 0 16 15" fill="none" xmlns="http://www.w3.org/2000/svg">
<path d="M2.16667 15C1.93056 15 1.7325 14.92 1.5725 14.76C1.41306 14.6006 1.33333 14.4028 1.33333 14.1667V13.3333H0.5V10C0.5 9.76389 0.58 9.56583 0.74 9.40583C0.899445 9.24639 1.09722 9.16667 1.33333 9.16667H2.16667V3.33333C2.16667 2.41667 2.49306 1.63194 3.14583 0.979167C3.79861 0.326389 4.58333 0 5.5 0C6.41667 0 7.20139 0.326389 7.85417 0.979167C8.50694 1.63194 8.83333 2.41667 8.83333 3.33333V11.6667C8.83333 12.125 8.99667 12.5175 9.32333 12.8442C9.64944 13.1703 10.0417 13.3333 10.5 13.3333C10.9583 13.3333 11.3508 13.1703 11.6775 12.8442C12.0036 12.5175 12.1667 12.125 12.1667 11.6667V5.83333H11.3333C11.0972 5.83333 10.8994 5.75333 10.74 5.59333C10.58 5.43389 10.5 5.23611 10.5 5V1.66667H11.3333V0.833333C11.3333 0.597222 11.4133 0.399167 11.5733 0.239167C11.7328 0.0797222 11.9306 0 12.1667 0H13.8333C14.0694 0 14.2672 0.0797222 14.4267 0.239167C14.5867 0.399167 14.6667 0.597222 14.6667 0.833333V1.66667H15.5V5C15.5 5.23611 15.42 5.43389 15.26 5.59333C15.1006 5.75333 14.9028 5.83333 14.6667 5.83333H13.8333V11.6667C13.8333 12.5833 13.5069 13.3681 12.8542 14.0208C12.2014 14.6736 11.4167 15 10.5 15C9.58333 15 8.79861 14.6736 8.14583 14.0208C7.49306 13.3681 7.16667 12.5833 7.16667 11.6667V3.33333C7.16667 2.875 7.00361 2.48278 6.6775 2.15667C6.35083 1.83 5.95833 1.66667 5.5 1.66667C5.04167 1.66667 4.64944 1.83 4.32333 2.15667C3.99667 2.48278 3.83333 2.875 3.83333 3.33333V9.16667H4.66667C4.90278 9.16667 5.10083 9.24639 5.26083 9.40583C5.42028 9.56583 5.5 9.76389 5.5 10V13.3333H4.66667V14.1667C4.66667 14.4028 4.58694 14.6006 4.4275 14.76C4.2675 14.92 4.06944 15 3.83333 15H2.16667Z" fill="#8F979B"/>
</svg>
