<svg width="820" height="900" viewBox="0 0 820 900" fill="none" xmlns="http://www.w3.org/2000/svg">
<circle opacity="0.2" cx="738" cy="851" r="250" fill="url(#paint0_linear_287_2)"/>
<circle opacity="0.2" r="25" transform="matrix(-1 0 0 1 537 146)" fill="#E4F9EA"/>
<circle opacity="0.2" r="76.5" transform="matrix(-1 0 0 1 35.5 861.5)" fill="#E4F9EA"/>
<circle cx="576" cy="593" r="421" stroke="white" stroke-opacity="0.6" stroke-width="2"/>
<g opacity="0.05">
<path d="M86.6377 594.04C90.3557 594.04 93.3698 591.016 93.3698 587.286C93.3698 583.556 90.3557 580.532 86.6377 580.532C82.9197 580.532 79.9056 583.556 79.9056 587.286C79.9056 591.016 82.9197 594.04 86.6377 594.04Z" fill="#E4F9EA"/>
<path d="M113.566 594.04C117.284 594.04 120.299 591.016 120.299 587.286C120.299 583.556 117.284 580.532 113.566 580.532C109.848 580.532 106.834 583.556 106.834 587.286C106.834 591.016 109.848 594.04 113.566 594.04Z" fill="#E4F9EA"/>
<path d="M338.663 637.954H255.008V721.882C255.01 726.495 256.838 730.917 260.089 734.178C263.339 737.439 267.747 739.273 272.344 739.276H355.493C355.628 739.276 355.757 739.222 355.852 739.127C355.947 739.032 356 738.902 356 738.768V655.347C356 650.734 354.173 646.31 350.922 643.048C347.671 639.787 343.261 637.954 338.663 637.954ZM254.974 619.205V557.38C254.933 554.665 255.432 551.969 256.442 549.45C257.451 546.931 258.951 544.639 260.853 542.707C262.755 540.776 265.022 539.244 267.52 538.201C270.019 537.158 272.7 536.624 275.406 536.632H355.46C355.594 536.632 355.723 536.579 355.818 536.483C355.913 536.388 355.966 536.259 355.966 536.124V418.437C355.966 396.043 347.099 374.566 331.316 358.731C315.532 342.896 294.125 334 271.804 334H53V519.228C52.9985 521.512 53.4459 523.775 54.3167 525.886C55.1874 527.996 56.4644 529.914 58.0745 531.53C59.6847 533.145 61.5965 534.426 63.7005 535.3C65.8046 536.174 68.0597 536.622 70.3368 536.621H131.669C134.601 536.617 137.506 537.193 140.217 538.317C142.927 539.441 145.39 541.09 147.464 543.171C149.538 545.251 151.182 547.722 152.302 550.442C153.423 553.161 153.997 556.075 153.992 559.018V617.545C154.001 620.221 153.484 622.871 152.469 625.346C151.455 627.82 149.964 630.069 148.081 631.964C146.199 633.859 143.962 635.363 141.499 636.389C139.036 637.415 136.395 637.943 133.729 637.943H70.3706C65.7675 637.943 61.3526 639.776 58.0957 643.039C54.8387 646.302 53.006 650.729 53 655.347V738.734C53 738.877 53.0569 739.015 53.1583 739.117C53.2596 739.219 53.3971 739.276 53.5404 739.276H136.656C141.253 739.273 145.661 737.439 148.911 734.178C152.162 730.917 153.99 726.495 153.992 721.882V658.318C153.992 655.642 154.519 652.993 155.541 650.522C156.564 648.051 158.063 645.807 159.951 643.918C161.84 642.03 164.082 640.534 166.548 639.516C169.015 638.498 171.657 637.979 174.324 637.988H238.177C242.646 637.973 246.927 636.181 250.081 633.006C253.236 629.83 255.008 625.53 255.008 621.046V619.589C255.008 619.476 254.974 619.341 254.974 619.205ZM172.331 536.632C167.477 536.629 162.823 534.693 159.391 531.25C155.959 527.807 154.029 523.137 154.026 518.268V435.491H171.926C172.732 435.384 173.544 435.328 174.358 435.322H238.177C242.646 435.337 246.927 437.128 250.081 440.304C253.236 443.479 255.008 447.78 255.008 452.263V516.178C255.059 518.865 254.573 521.535 253.579 524.03C252.586 526.525 251.104 528.796 249.222 530.707C247.339 532.619 245.094 534.133 242.619 535.16C240.145 536.188 237.49 536.707 234.811 536.689L172.331 536.632Z" fill="#E4F9EA"/>
</g>
<circle cx="223.5" cy="118.5" r="263.5" stroke="white" stroke-opacity="0.6" stroke-width="2"/>
<defs>
<linearGradient id="paint0_linear_287_2" x1="589.5" y1="635.5" x2="871" y2="972" gradientUnits="userSpaceOnUse">
<stop stop-color="#E4F9EA"/>
<stop offset="1" stop-color="#E4F9EA" stop-opacity="0"/>
</linearGradient>
</defs>
</svg>
