<svg width="58" height="58" viewBox="0 0 58 58" fill="none" xmlns="http://www.w3.org/2000/svg">
<circle cx="29" cy="29" r="29" fill="#C4EEDD"/>
<path d="M18 37.5227V32.6136C18 31.2197 18.2727 29.7955 18.8182 28.3409C19.3636 26.8864 20.0833 25.5152 20.9773 24.2273C21.8712 22.9394 22.8409 21.8636 23.8864 21L28.1591 23.5227C27.3106 24.8561 26.6136 26.25 26.0682 27.7045C25.5379 29.1591 25.2727 30.7803 25.2727 32.5682V37.5227H18ZM29.4773 37.5227V32.6136C29.4773 31.2197 29.75 29.7955 30.2955 28.3409C30.8409 26.8864 31.5606 25.5152 32.4545 24.2273C33.3485 22.9394 34.3182 21.8636 35.3636 21L39.6364 23.5227C38.7879 24.8561 38.0909 26.25 37.5455 27.7045C37.0152 29.1591 36.75 30.7803 36.75 32.5682V37.5227H29.4773Z" fill="white"/>
</svg>
