<svg width="132" viewBox="0 0 132 48" fill="none" xmlns="http://www.w3.org/2000/svg">
<g clip-path="url(#clip0_148_2570)">
<path d="M3.94415 30.4906C4.3801 30.4906 4.73351 30.136 4.73351 29.6987C4.73351 29.2613 4.3801 28.9067 3.94415 28.9067C3.50819 28.9067 3.15479 29.2613 3.15479 29.6987C3.15479 30.136 3.50819 30.4906 3.94415 30.4906Z" fill="#1AA86E"/>
<path d="M7.10162 30.4906C7.53757 30.4906 7.89098 30.136 7.89098 29.6987C7.89098 29.2613 7.53757 28.9067 7.10162 28.9067C6.66566 28.9067 6.31226 29.2613 6.31226 29.6987C6.31226 30.136 6.66566 30.4906 7.10162 30.4906Z" fill="#1AA86E"/>
<path d="M33.495 35.6397H23.6861V45.4806C23.6864 46.0214 23.9007 46.5399 24.2819 46.9223C24.663 47.3047 25.1799 47.5196 25.7189 47.52H35.4684C35.4842 47.52 35.4993 47.5137 35.5104 47.5025C35.5215 47.4914 35.5278 47.4762 35.5278 47.4604V37.6791C35.5278 37.1382 35.3136 36.6195 34.9324 36.237C34.5512 35.8545 34.0341 35.6397 33.495 35.6397ZM23.6821 33.4413V26.1921C23.6774 25.8738 23.7359 25.5577 23.8543 25.2623C23.9726 24.9669 24.1485 24.6981 24.3715 24.4716C24.5945 24.2452 24.8603 24.0655 25.1533 23.9432C25.4463 23.8209 25.7606 23.7584 26.0779 23.7593H35.4645C35.4802 23.7593 35.4953 23.7531 35.5065 23.7419C35.5176 23.7307 35.5238 23.7156 35.5238 23.6997V9.9005C35.5238 7.27472 34.4841 4.75649 32.6335 2.89979C30.7828 1.04308 28.2728 0 25.6555 0L4.29168e-07 0V21.7186C-0.000173117 21.9865 0.0522884 22.2517 0.154385 22.4992C0.256481 22.7468 0.406209 22.9717 0.595007 23.1611C0.783804 23.3505 1.00797 23.5007 1.25468 23.6031C1.50139 23.7056 1.7658 23.7582 2.0328 23.758H9.22416C9.56805 23.7575 9.90866 23.8251 10.2265 23.9569C10.5443 24.0886 10.8331 24.2821 11.0762 24.526C11.3194 24.77 11.5122 25.0597 11.6435 25.3785C11.7749 25.6974 11.8422 26.0391 11.8417 26.3841V33.2467C11.8428 33.5604 11.7821 33.8712 11.6631 34.1613C11.5442 34.4514 11.3694 34.7152 11.1486 34.9374C10.9279 35.1595 10.6656 35.3358 10.3768 35.4561C10.088 35.5764 9.77841 35.6383 9.46572 35.6383H2.03676C1.49704 35.6383 0.979377 35.8533 0.597486 36.2359C0.215595 36.6185 0.000700008 37.1376 4.29168e-07 37.6791V47.4564C4.29168e-07 47.4733 0.00667584 47.4895 0.0185581 47.5014C0.0304405 47.5133 0.0465563 47.52 0.0633604 47.52H9.80892C10.3479 47.5196 10.8648 47.3047 11.2459 46.9223C11.6271 46.5399 11.8414 46.0214 11.8417 45.4806V38.0274C11.8417 37.7137 11.9034 37.4031 12.0233 37.1133C12.1432 36.8236 12.319 36.5605 12.5404 36.339C12.7619 36.1176 13.0248 35.9421 13.314 35.8228C13.6031 35.7035 13.913 35.6426 14.2256 35.6436H21.7127C22.2367 35.6419 22.7386 35.4318 23.1085 35.0595C23.4784 34.6871 23.6861 34.1829 23.6861 33.6572V33.4864C23.6861 33.4731 23.6821 33.4572 23.6821 33.4413ZM13.992 23.7593C13.4229 23.759 12.8771 23.532 12.4747 23.1283C12.0723 22.7245 11.846 22.177 11.8457 21.606V11.9002H13.9445C14.039 11.8876 14.1342 11.881 14.2296 11.8803H21.7127C22.2367 11.8821 22.7386 12.0921 23.1085 12.4645C23.4784 12.8368 23.6861 13.3411 23.6861 13.8668V21.361C23.6921 21.676 23.6351 21.9891 23.5186 22.2817C23.4021 22.5743 23.2284 22.8405 23.0077 23.0646C22.787 23.2888 22.5237 23.4663 22.2335 23.5868C21.9433 23.7072 21.632 23.7681 21.318 23.766L13.992 23.7593Z" fill="#1AA86E"/>
<path d="M49.4778 44.9454L49.0251 43.7434H46.7125L46.2597 44.9454H45.7443L47.618 40.0536H48.1195L49.9933 44.9454H49.4778ZM46.8866 43.2822H48.8509L47.8688 40.6616L46.8866 43.2822Z" fill="#231F20"/>
<path d="M50.8779 42.3667C50.8779 42.5251 50.9476 42.6509 51.0869 42.7441C51.2262 42.8373 51.3957 42.9095 51.5954 42.9607C51.7951 43.012 51.9948 43.0702 52.1944 43.1355C52.3941 43.196 52.5636 43.3008 52.7029 43.4499C52.8423 43.5944 52.9119 43.7854 52.9119 44.023C52.9119 44.3211 52.7935 44.5634 52.5567 44.7498C52.3245 44.9361 52.0226 45.0293 51.6511 45.0293C51.3168 45.0293 51.0312 44.9548 50.7944 44.8057C50.5622 44.6566 50.3996 44.4632 50.3068 44.2256L50.6968 43.995C50.7618 44.1767 50.8779 44.3211 51.0451 44.4283C51.2169 44.5308 51.4189 44.582 51.6511 44.582C51.8787 44.582 52.0691 44.5378 52.2223 44.4493C52.3756 44.3561 52.4522 44.214 52.4522 44.023C52.4522 43.8646 52.3825 43.7388 52.2432 43.6456C52.1039 43.5524 51.9344 43.4802 51.7347 43.429C51.535 43.3777 51.3354 43.3218 51.1357 43.2612C50.936 43.196 50.7665 43.0912 50.6272 42.9468C50.4879 42.7977 50.4182 42.6043 50.4182 42.3667C50.4182 42.0825 50.5297 41.8449 50.7526 41.6539C50.9801 41.4629 51.2657 41.3674 51.6093 41.3674C51.8926 41.3674 52.141 41.4326 52.3547 41.5631C52.5683 41.6889 52.7262 41.8612 52.8283 42.0802L52.4452 42.3038C52.3105 41.9777 52.0319 41.8147 51.6093 41.8147C51.4097 41.8147 51.2378 41.8636 51.0939 41.9614C50.9499 42.0546 50.8779 42.1897 50.8779 42.3667Z" fill="#231F20"/>
<path d="M53.8302 42.3667C53.8302 42.5251 53.8998 42.6509 54.0391 42.7441C54.1785 42.8373 54.348 42.9095 54.5476 42.9607C54.7473 43.012 54.947 43.0702 55.1467 43.1355C55.3464 43.196 55.5159 43.3008 55.6552 43.4499C55.7945 43.5944 55.8641 43.7854 55.8641 44.023C55.8641 44.3211 55.7457 44.5634 55.5089 44.7498C55.2767 44.9361 54.9749 45.0293 54.6034 45.0293C54.269 45.0293 53.9834 44.9548 53.7466 44.8057C53.5144 44.6566 53.3519 44.4632 53.259 44.2256L53.6491 43.995C53.7141 44.1767 53.8302 44.3211 53.9973 44.4283C54.1692 44.5308 54.3712 44.582 54.6034 44.582C54.8309 44.582 55.0213 44.5378 55.1745 44.4493C55.3278 44.3561 55.4044 44.214 55.4044 44.023C55.4044 43.8646 55.3348 43.7388 55.1954 43.6456C55.0561 43.5524 54.8866 43.4802 54.6869 43.429C54.4873 43.3777 54.2876 43.3218 54.0879 43.2612C53.8882 43.196 53.7187 43.0912 53.5794 42.9468C53.4401 42.7977 53.3704 42.6043 53.3704 42.3667C53.3704 42.0825 53.4819 41.8449 53.7048 41.6539C53.9323 41.4629 54.2179 41.3674 54.5616 41.3674C54.8448 41.3674 55.0933 41.4326 55.3069 41.5631C55.5205 41.6889 55.6784 41.8612 55.7806 42.0802L55.3974 42.3038C55.2628 41.9777 54.9841 41.8147 54.5616 41.8147C54.3619 41.8147 54.1901 41.8636 54.0461 41.9614C53.9022 42.0546 53.8302 42.1897 53.8302 42.3667Z" fill="#231F20"/>
<path d="M58.1381 41.3674C58.6536 41.3674 59.0692 41.5514 59.3849 41.9195C59.7054 42.2829 59.8656 42.7138 59.8656 43.2123C59.8656 43.2636 59.8609 43.3358 59.8516 43.429H56.7937C56.8402 43.783 56.9888 44.0649 57.2395 44.2746C57.4949 44.4795 57.8084 44.582 58.1799 44.582C58.4446 44.582 58.6721 44.5285 58.8625 44.4213C59.0576 44.3095 59.2038 44.1651 59.3014 43.988L59.7054 44.2256C59.5521 44.4726 59.3432 44.6682 59.0785 44.8127C58.8138 44.9571 58.5119 45.0293 58.1729 45.0293C57.625 45.0293 57.1792 44.8569 56.8355 44.5122C56.4919 44.1674 56.3201 43.7295 56.3201 43.1983C56.3201 42.6765 56.4896 42.2409 56.8286 41.8915C57.1676 41.5421 57.6041 41.3674 58.1381 41.3674ZM58.1381 41.8147C57.7759 41.8147 57.4717 41.9241 57.2256 42.1431C56.9841 42.3574 56.8402 42.6369 56.7937 42.9817H59.3919C59.3455 42.6137 59.2038 42.3271 58.967 42.1221C58.7302 41.9171 58.4539 41.8147 58.1381 41.8147Z" fill="#231F20"/>
<path d="M62.3407 41.8985H61.3377V44.016C61.3377 44.207 61.3748 44.3444 61.4491 44.4283C61.5234 44.5075 61.6349 44.5494 61.7835 44.5541C61.9321 44.5541 62.1178 44.5494 62.3407 44.5401V44.9454C61.8531 45.02 61.4863 44.985 61.2401 44.8406C60.9987 44.6962 60.8779 44.4213 60.8779 44.016V41.8985H60.1465V41.4513H60.8779V40.6127L61.3377 40.4729V41.4513H62.3407V41.8985Z" fill="#231F20"/>
<path d="M69.376 40.0536V44.9454H68.8884V40.7944L67.1818 43.6596H67.1122L65.4056 40.7944V44.9454H64.918V40.0536H65.524L67.147 42.779L68.77 40.0536H69.376Z" fill="#231F20"/>
<path d="M73.4147 41.4513H73.8745V44.9454H73.4147V44.2606C73.0943 44.7731 72.6253 45.0293 72.0077 45.0293C71.5108 45.0293 71.0859 44.8523 70.733 44.4982C70.3847 44.1441 70.2105 43.7108 70.2105 43.1983C70.2105 42.6859 70.3847 42.2526 70.733 41.8985C71.0859 41.5444 71.5108 41.3674 72.0077 41.3674C72.6253 41.3674 73.0943 41.6236 73.4147 42.1361V41.4513ZM71.0673 44.1837C71.332 44.4493 71.6571 44.582 72.0425 44.582C72.4279 44.582 72.753 44.4493 73.0177 44.1837C73.2824 43.9135 73.4147 43.585 73.4147 43.1983C73.4147 42.8117 73.2824 42.4855 73.0177 42.22C72.753 41.9498 72.4279 41.8147 72.0425 41.8147C71.6571 41.8147 71.332 41.9498 71.0673 42.22C70.8026 42.4855 70.6703 42.8117 70.6703 43.1983C70.6703 43.585 70.8026 43.9135 71.0673 44.1837Z" fill="#231F20"/>
<path d="M76.4778 41.3674C76.9004 41.3674 77.2324 41.4978 77.4739 41.7587C77.72 42.015 77.8431 42.3621 77.8431 42.8V44.9454H77.3833V42.8C77.3833 42.4879 77.2998 42.2456 77.1326 42.0732C76.97 41.9008 76.7379 41.8147 76.436 41.8147C76.1017 41.8147 75.83 41.9218 75.621 42.1361C75.4121 42.3458 75.3076 42.6719 75.3076 43.1145V44.9454H74.8478V41.4513H75.3076V41.9963C75.5676 41.577 75.9577 41.3674 76.4778 41.3674Z" fill="#231F20"/>
<path d="M81.7272 41.4513H82.187V44.9454H81.7272V44.2606C81.4068 44.7731 80.9378 45.0293 80.3202 45.0293C79.8233 45.0293 79.3984 44.8523 79.0455 44.4982C78.6972 44.1441 78.523 43.7108 78.523 43.1983C78.523 42.6859 78.6972 42.2526 79.0455 41.8985C79.3984 41.5444 79.8233 41.3674 80.3202 41.3674C80.9378 41.3674 81.4068 41.6236 81.7272 42.1361V41.4513ZM79.3798 44.1837C79.6445 44.4493 79.9696 44.582 80.355 44.582C80.7404 44.582 81.0655 44.4493 81.3302 44.1837C81.5949 43.9135 81.7272 43.585 81.7272 43.1983C81.7272 42.8117 81.5949 42.4855 81.3302 42.22C81.0655 41.9498 80.7404 41.8147 80.355 41.8147C79.9696 41.8147 79.6445 41.9498 79.3798 42.22C79.1151 42.4855 78.9828 42.8117 78.9828 43.1983C78.9828 43.585 79.1151 43.9135 79.3798 44.1837Z" fill="#231F20"/>
<path d="M86.1556 41.4513H86.6153V44.8057C86.6153 45.3088 86.4435 45.7048 86.0999 45.9937C85.7562 46.2825 85.3452 46.427 84.8669 46.427C84.0496 46.427 83.4994 46.1428 83.2161 45.5744L83.6201 45.3438C83.8291 45.7677 84.2447 45.9797 84.8669 45.9797C85.2663 45.9797 85.5798 45.8726 85.8073 45.6582C86.0395 45.4486 86.1556 45.1644 86.1556 44.8057V44.2606C85.8352 44.7731 85.3661 45.0293 84.7485 45.0293C84.2516 45.0293 83.8267 44.8523 83.4738 44.4982C83.1255 44.1441 82.9514 43.7108 82.9514 43.1983C82.9514 42.6859 83.1255 42.2526 83.4738 41.8985C83.8267 41.5444 84.2516 41.3674 84.7485 41.3674C85.3661 41.3674 85.8352 41.6236 86.1556 42.1361V41.4513ZM83.8082 44.1837C84.0729 44.4493 84.3979 44.582 84.7834 44.582C85.1688 44.582 85.4938 44.4493 85.7585 44.1837C86.0232 43.9135 86.1556 43.585 86.1556 43.1983C86.1556 42.8117 86.0232 42.4855 85.7585 42.22C85.4938 41.9498 85.1688 41.8147 84.7834 41.8147C84.3979 41.8147 84.0729 41.9498 83.8082 42.22C83.5435 42.4855 83.4111 42.8117 83.4111 43.1983C83.4111 43.585 83.5435 43.9135 83.8082 44.1837Z" fill="#231F20"/>
<path d="M89.1978 41.3674C89.7132 41.3674 90.1288 41.5514 90.4446 41.9195C90.765 42.2829 90.9253 42.7138 90.9253 43.2123C90.9253 43.2636 90.9206 43.3358 90.9113 43.429H87.8534C87.8998 43.783 88.0484 44.0649 88.2992 44.2746C88.5546 44.4795 88.8681 44.582 89.2396 44.582C89.5043 44.582 89.7318 44.5285 89.9222 44.4213C90.1172 44.3095 90.2635 44.1651 90.361 43.988L90.765 44.2256C90.6118 44.4726 90.4028 44.6682 90.1381 44.8127C89.8734 44.9571 89.5716 45.0293 89.2326 45.0293C88.6846 45.0293 88.2388 44.8569 87.8952 44.5122C87.5516 44.1674 87.3797 43.7295 87.3797 43.1983C87.3797 42.6765 87.5492 42.2409 87.8882 41.8915C88.2272 41.5421 88.6637 41.3674 89.1978 41.3674ZM89.1978 41.8147C88.8356 41.8147 88.5314 41.9241 88.2853 42.1431C88.0438 42.3574 87.8998 42.6369 87.8534 42.9817H90.4516C90.4052 42.6137 90.2635 42.3271 90.0267 42.1221C89.7899 41.9171 89.5135 41.8147 89.1978 41.8147Z" fill="#231F20"/>
<path d="M95.3692 41.3674C95.7593 41.3674 96.0728 41.4932 96.3096 41.7448C96.5511 41.9963 96.6718 42.3364 96.6718 42.7651V44.9454H96.2121V42.7651C96.2121 42.4622 96.1331 42.2293 95.9752 42.0662C95.822 41.8985 95.6177 41.8147 95.3623 41.8147C95.0743 41.8147 94.8398 41.9125 94.6587 42.1082C94.4823 42.2992 94.394 42.5997 94.394 43.0097V44.9454H93.9343V42.7651C93.9343 42.4576 93.86 42.2223 93.7114 42.0592C93.5674 41.8962 93.3701 41.8147 93.1193 41.8147C92.8407 41.8147 92.6039 41.9125 92.4088 42.1082C92.2138 42.3038 92.1163 42.6043 92.1163 43.0097V44.9454H91.6565V41.4513H92.1163V41.9614C92.367 41.5654 92.7223 41.3674 93.182 41.3674C93.6835 41.3674 94.0365 41.5794 94.2408 42.0033C94.4916 41.5794 94.8677 41.3674 95.3692 41.3674Z" fill="#231F20"/>
<path d="M99.1701 41.3674C99.6855 41.3674 100.101 41.5514 100.417 41.9195C100.737 42.2829 100.898 42.7138 100.898 43.2123C100.898 43.2636 100.893 43.3358 100.884 43.429H97.8257C97.8721 43.783 98.0207 44.0649 98.2715 44.2746C98.5269 44.4795 98.8404 44.582 99.2119 44.582C99.4766 44.582 99.7041 44.5285 99.8945 44.4213C100.09 44.3095 100.236 44.1651 100.333 43.988L100.737 44.2256C100.584 44.4726 100.375 44.6682 100.11 44.8127C99.8457 44.9571 99.5439 45.0293 99.2049 45.0293C98.6569 45.0293 98.2111 44.8569 97.8675 44.5122C97.5239 44.1674 97.352 43.7295 97.352 43.1983C97.352 42.6765 97.5215 42.2409 97.8605 41.8915C98.1995 41.5421 98.636 41.3674 99.1701 41.3674ZM99.1701 41.8147C98.8079 41.8147 98.5037 41.9241 98.2576 42.1431C98.0161 42.3574 97.8721 42.6369 97.8257 42.9817H100.424C100.377 42.6137 100.236 42.3271 99.999 42.1221C99.7621 41.9171 99.4858 41.8147 99.1701 41.8147Z" fill="#231F20"/>
<path d="M103.259 41.3674C103.681 41.3674 104.013 41.4978 104.255 41.7587C104.501 42.015 104.624 42.3621 104.624 42.8V44.9454H104.164V42.8C104.164 42.4879 104.081 42.2456 103.914 42.0732C103.751 41.9008 103.519 41.8147 103.217 41.8147C102.883 41.8147 102.611 41.9218 102.402 42.1361C102.193 42.3458 102.089 42.6719 102.089 43.1145V44.9454H101.629V41.4513H102.089V41.9963C102.349 41.577 102.739 41.3674 103.259 41.3674Z" fill="#231F20"/>
<path d="M107.359 41.8985H106.356V44.016C106.356 44.207 106.393 44.3444 106.467 44.4283C106.542 44.5075 106.653 44.5494 106.802 44.5541C106.95 44.5541 107.136 44.5494 107.359 44.5401V44.9454C106.871 45.02 106.504 44.985 106.258 44.8406C106.017 44.6962 105.896 44.4213 105.896 44.016V41.8985H105.165V41.4513H105.896V40.6127L106.356 40.4729V41.4513H107.359V41.8985Z" fill="#231F20"/>
<path d="M111.469 45.0293C111.023 45.0293 110.64 44.9245 110.319 44.7148C110.004 44.5005 109.783 44.207 109.658 43.8343L110.075 43.5897C110.164 43.8925 110.326 44.1301 110.563 44.3025C110.8 44.4702 111.104 44.5541 111.476 44.5541C111.838 44.5541 112.119 44.4749 112.318 44.3165C112.523 44.1534 112.625 43.9391 112.625 43.6736C112.625 43.4173 112.532 43.224 112.346 43.0935C112.161 42.9631 111.854 42.828 111.427 42.6882C110.921 42.5205 110.586 42.3854 110.424 42.2829C110.052 42.0592 109.867 41.7355 109.867 41.3115C109.867 40.8968 110.01 40.5707 110.298 40.3331C110.586 40.0909 110.942 39.9697 111.364 39.9697C111.745 39.9697 112.075 40.0699 112.353 40.2702C112.632 40.4659 112.839 40.7175 112.973 41.025L112.562 41.2556C112.339 40.7152 111.94 40.4449 111.364 40.4449C111.062 40.4449 110.818 40.5195 110.633 40.6686C110.447 40.8176 110.354 41.025 110.354 41.2905C110.354 41.5328 110.438 41.7145 110.605 41.8356C110.772 41.9567 111.048 42.0802 111.434 42.206C111.61 42.2666 111.736 42.3108 111.81 42.3388C111.889 42.3621 112 42.404 112.144 42.4646C112.293 42.5205 112.402 42.5717 112.472 42.6183C112.541 42.6602 112.625 42.7208 112.722 42.8C112.825 42.8746 112.897 42.9514 112.938 43.0306C112.985 43.1052 113.024 43.1983 113.057 43.3102C113.094 43.4173 113.113 43.5338 113.113 43.6596C113.113 44.0742 112.962 44.4073 112.66 44.6589C112.358 44.9058 111.961 45.0293 111.469 45.0293Z" fill="#231F20"/>
<path d="M116.252 41.4513H116.739L115.248 45.2669C115.114 45.6117 114.921 45.8819 114.67 46.0775C114.424 46.2779 114.148 46.3664 113.841 46.3431V45.9098C114.259 45.9564 114.577 45.7142 114.796 45.183L114.886 44.9664L113.326 41.4513H113.814L115.123 44.3794L116.252 41.4513Z" fill="#231F20"/>
<path d="M117.446 42.3667C117.446 42.5251 117.516 42.6509 117.655 42.7441C117.794 42.8373 117.964 42.9095 118.164 42.9607C118.363 43.012 118.563 43.0702 118.763 43.1355C118.962 43.196 119.132 43.3008 119.271 43.4499C119.41 43.5944 119.48 43.7854 119.48 44.023C119.48 44.3211 119.362 44.5634 119.125 44.7498C118.893 44.9361 118.591 45.0293 118.219 45.0293C117.885 45.0293 117.599 44.9548 117.362 44.8057C117.13 44.6566 116.968 44.4632 116.875 44.2256L117.265 43.995C117.33 44.1767 117.446 44.3211 117.613 44.4283C117.785 44.5308 117.987 44.582 118.219 44.582C118.447 44.582 118.637 44.5378 118.79 44.4493C118.944 44.3561 119.02 44.214 119.02 44.023C119.02 43.8646 118.951 43.7388 118.811 43.6456C118.672 43.5524 118.503 43.4802 118.303 43.429C118.103 43.3777 117.903 43.3218 117.704 43.2612C117.504 43.196 117.335 43.0912 117.195 42.9468C117.056 42.7977 116.986 42.6043 116.986 42.3667C116.986 42.0825 117.098 41.8449 117.321 41.6539C117.548 41.4629 117.834 41.3674 118.177 41.3674C118.461 41.3674 118.709 41.4326 118.923 41.5631C119.136 41.6889 119.294 41.8612 119.396 42.0802L119.013 42.3038C118.879 41.9777 118.6 41.8147 118.177 41.8147C117.978 41.8147 117.806 41.8636 117.662 41.9614C117.518 42.0546 117.446 42.1897 117.446 42.3667Z" fill="#231F20"/>
<path d="M121.957 41.8985H120.954V44.016C120.954 44.207 120.991 44.3444 121.065 44.4283C121.139 44.5075 121.251 44.5494 121.4 44.5541C121.548 44.5541 121.734 44.5494 121.957 44.5401V44.9454C121.469 45.02 121.102 44.985 120.856 44.8406C120.615 44.6962 120.494 44.4213 120.494 44.016V41.8985H119.763V41.4513H120.494V40.6127L120.954 40.4729V41.4513H121.957V41.8985Z" fill="#231F20"/>
<path d="M124.121 41.3674C124.637 41.3674 125.052 41.5514 125.368 41.9195C125.688 42.2829 125.849 42.7138 125.849 43.2123C125.849 43.2636 125.844 43.3358 125.835 43.429H122.777C122.823 43.783 122.972 44.0649 123.223 44.2746C123.478 44.4795 123.792 44.582 124.163 44.582C124.428 44.582 124.655 44.5285 124.846 44.4213C125.041 44.3095 125.187 44.1651 125.284 43.988L125.688 44.2256C125.535 44.4726 125.326 44.6682 125.062 44.8127C124.797 44.9571 124.495 45.0293 124.156 45.0293C123.608 45.0293 123.162 44.8569 122.819 44.5122C122.475 44.1674 122.303 43.7295 122.303 43.1983C122.303 42.6765 122.473 42.2409 122.812 41.8915C123.151 41.5421 123.587 41.3674 124.121 41.3674ZM124.121 41.8147C123.759 41.8147 123.455 41.9241 123.209 42.1431C122.967 42.3574 122.823 42.6369 122.777 42.9817H125.375C125.329 42.6137 125.187 42.3271 124.95 42.1221C124.713 41.9171 124.437 41.8147 124.121 41.8147Z" fill="#231F20"/>
<path d="M130.293 41.3674C130.683 41.3674 130.996 41.4932 131.233 41.7448C131.474 41.9963 131.595 42.3364 131.595 42.7651V44.9454H131.135V42.7651C131.135 42.4622 131.057 42.2293 130.899 42.0662C130.745 41.8985 130.541 41.8147 130.286 41.8147C129.998 41.8147 129.763 41.9125 129.582 42.1082C129.406 42.2992 129.317 42.5997 129.317 43.0097V44.9454H128.858V42.7651C128.858 42.4576 128.783 42.2223 128.635 42.0592C128.491 41.8962 128.294 41.8147 128.043 41.8147C127.764 41.8147 127.527 41.9125 127.332 42.1082C127.137 42.3038 127.04 42.6043 127.04 43.0097V44.9454H126.58V41.4513H127.04V41.9614C127.29 41.5654 127.646 41.3674 128.105 41.3674C128.607 41.3674 128.96 41.5794 129.164 42.0033C129.415 41.5794 129.791 41.3674 130.293 41.3674Z" fill="#231F20"/>
<path d="M63.5408 7.41602H55.0176L46.2 35.1708C46.1393 35.3616 46.1244 35.5641 46.1565 35.7618C46.1885 35.9595 46.2667 36.1469 46.3845 36.3086C46.5023 36.4703 46.6565 36.6018 46.8346 36.6924C47.0126 36.783 47.2095 36.8302 47.4091 36.8301H53.79L54.78 33.4942C54.8583 33.2318 55.0189 33.0017 55.2379 32.838C55.4569 32.6744 55.7226 32.5859 55.9957 32.5857H65.0285L66.1452 35.9574C66.2292 36.2113 66.3906 36.4321 66.6067 36.5888C66.8227 36.7454 67.0825 36.8299 67.349 36.8301H74.1523L64.7447 8.28741C64.6608 8.03361 64.4994 7.81279 64.2832 7.65635C64.0671 7.49991 63.8073 7.41581 63.5408 7.41602ZM58.6793 26.1152C58.482 26.1155 58.2874 26.0695 58.111 25.9811C57.9346 25.8926 57.7811 25.764 57.6629 25.6056C57.5448 25.4472 57.4651 25.2632 57.4302 25.0685C57.3954 24.8737 57.4063 24.6734 57.4622 24.4837L58.707 20.2366C59.0634 19.0209 60.7781 19.0182 61.1397 20.2366L62.8887 26.1192L58.6793 26.1152Z" fill="black"/>
<path d="M131.244 24.4638C130.738 23.3833 129.938 22.4677 128.938 21.8218C128.04 21.2087 127.075 20.7033 126.06 20.3161L122.682 19.0951L122.608 19.0712C120.649 18.485 119.329 17.9676 118.648 17.5191C117.967 17.0706 117.626 16.5215 117.624 15.8717C117.62 15.6008 117.681 15.3329 117.801 15.0904C117.922 14.8478 118.098 14.6376 118.316 14.4772C118.777 14.1099 119.454 13.9267 120.347 13.9276C122.052 13.9276 123.372 14.6339 124.307 16.0465C124.501 16.3423 124.801 16.5519 125.145 16.632C125.489 16.7121 125.851 16.6566 126.155 16.4769L131.208 13.5078C130.202 11.3227 128.75 9.65585 126.852 8.50724C124.954 7.35863 122.776 6.78476 120.318 6.78565C117.414 6.78565 114.991 7.62437 113.05 9.30182C111.109 10.9793 110.141 13.1781 110.146 15.8982C110.146 18.4197 110.928 20.388 112.492 21.8033C114.055 23.2185 116.178 24.3181 118.858 25.1021C120.751 25.6504 121.975 26.0401 122.532 26.2715C123.852 26.8012 124.512 27.4956 124.512 28.3546C124.512 29.6595 123.368 30.3119 121.08 30.3119C118.769 30.3119 117.043 29.4017 115.903 27.5812C115.712 27.281 115.413 27.0665 115.069 26.9828C114.724 26.8991 114.361 26.9526 114.055 27.1323L108.892 30.145C109.672 32.3574 111.172 34.2412 113.152 35.4913C115.19 36.8094 117.759 37.468 120.858 37.4671C124.209 37.4671 126.903 36.6544 128.942 35.0291C130.98 33.4037 131.999 31.1462 132 28.2566C132 26.8043 131.748 25.54 131.244 24.4638Z" fill="black"/>
<path d="M104.928 7.41603H99.528C99.2889 7.41482 99.0537 7.4761 98.8454 7.59383C98.637 7.71156 98.4629 7.88168 98.34 8.08746L92.4277 17.9959C92.3058 18.2011 92.1328 18.3711 91.9257 18.4891C91.7186 18.6071 91.4845 18.6692 91.2463 18.6692C91.0082 18.6692 90.7741 18.6071 90.567 18.4891C90.3599 18.3711 90.1869 18.2011 90.0649 17.9959L83.7897 7.41603H76.296V35.5575C76.296 35.8951 76.4296 36.219 76.6675 36.4579C76.9053 36.6967 77.228 36.8311 77.5645 36.8315H83.7936V21.5344L91.249 32.8016L92.6772 30.6072L94.2705 28.1666L96.4155 24.8664C96.5653 24.6386 96.7842 24.4652 97.0398 24.3718C97.2954 24.2783 97.5741 24.2698 97.8349 24.3474C98.0957 24.425 98.3247 24.5847 98.4882 24.8028C98.6516 25.021 98.7408 25.2861 98.7426 25.559V35.5522C98.7426 35.8901 98.8764 36.2141 99.1145 36.453C99.3527 36.692 99.6757 36.8262 100.012 36.8262H106.198V8.68737C106.197 8.34994 106.063 8.02658 105.825 7.78824C105.587 7.54989 105.264 7.41603 104.928 7.41603Z" fill="black"/>
</g>
<defs>
<clipPath id="clip0_148_2570">
<rect width="132" height="47.52" fill="white"/>
</clipPath>
</defs>
</svg>
