<svg width="32" height="42" viewBox="0 0 32 42" fill="none" xmlns="http://www.w3.org/2000/svg">
  <path d="M3.49671 26.9487C3.88322 26.9487 4.19654 26.6353 4.19654 26.2488C4.19654 25.8622 3.88322 25.5488 3.49671 25.5488C3.1102 25.5488 2.79688 25.8622 2.79688 26.2488C2.79688 26.6353 3.1102 26.9487 3.49671 26.9487Z" fill="white"/>
  <path d="M6.29627 26.9487C6.68278 26.9487 6.9961 26.6353 6.9961 26.2488C6.9961 25.8622 6.68278 25.5488 6.29627 25.5488C5.90976 25.5488 5.59644 25.8622 5.59644 26.2488C5.59644 26.6353 5.90976 26.9487 6.29627 26.9487Z" fill="white"/>
  <path d="M29.6961 31.4997H20.9997V40.1975C21 40.6754 21.19 41.1337 21.5279 41.4717C21.8658 41.8097 22.3241 41.9997 22.802 42H31.4457C31.4597 42 31.4731 41.9945 31.483 41.9846C31.4928 41.9747 31.4984 41.9613 31.4984 41.9473V33.3022C31.4984 32.8242 31.3085 32.3657 30.9705 32.0277C30.6325 31.6896 30.1741 31.4997 29.6961 31.4997ZM20.9962 29.5567V23.1496C20.992 22.8682 21.0439 22.5888 21.1488 22.3278C21.2538 22.0667 21.4096 21.8291 21.6074 21.629C21.8051 21.4288 22.0407 21.27 22.3005 21.162C22.5602 21.0539 22.8389 20.9986 23.1203 20.9994H31.4422C31.4562 20.9994 31.4696 20.9939 31.4795 20.984C31.4893 20.9741 31.4949 20.9607 31.4949 20.9467V8.75044C31.4949 6.42968 30.5731 4.20397 28.9323 2.56294C27.2915 0.921919 25.0662 0 22.7458 0L3.80494e-07 0V19.1957C-0.000153482 19.4325 0.046358 19.6669 0.136875 19.8857C0.227392 20.1045 0.360139 20.3032 0.527524 20.4706C0.694908 20.6381 0.893648 20.7708 1.11238 20.8613C1.3311 20.9519 1.56553 20.9984 1.80225 20.9982H8.17799C8.48288 20.9978 8.78486 21.0575 9.06663 21.174C9.3484 21.2905 9.60441 21.4614 9.82 21.677C10.0356 21.8927 10.2065 22.1487 10.323 22.4305C10.4394 22.7123 10.4991 23.0144 10.4987 23.3193V29.3847C10.4996 29.6619 10.4458 29.9367 10.3404 30.1931C10.2349 30.4495 10.0799 30.6826 9.88418 30.879C9.68848 31.0754 9.45595 31.2312 9.19991 31.3375C8.94388 31.4438 8.66938 31.4985 8.39216 31.4985H1.80576C1.32725 31.4985 0.8683 31.6885 0.529722 32.0267C0.191143 32.3649 0.000620616 32.8236 3.80494e-07 33.3022V41.9438C3.80494e-07 41.9587 0.00591869 41.973 0.0164534 41.9835C0.026988 41.9941 0.0412761 42 0.0561744 42H8.69643C9.17432 41.9997 9.63255 41.8097 9.97047 41.4717C10.3084 41.1337 10.4984 40.6754 10.4987 40.1975V33.6101C10.4987 33.3328 10.5534 33.0583 10.6597 32.8022C10.766 32.5461 10.9218 32.3135 11.1181 32.1178C11.3145 31.9221 11.5476 31.767 11.8039 31.6616C12.0603 31.5561 12.335 31.5023 12.6122 31.5032H19.2501C19.7147 31.5017 20.1597 31.316 20.4876 30.9869C20.8156 30.6578 20.9997 30.2121 20.9997 29.7475V29.5965C20.9997 29.5848 20.9962 29.5708 20.9962 29.5567ZM12.4051 20.9994C11.9005 20.9991 11.4167 20.7985 11.0599 20.4416C10.7031 20.0848 10.5025 19.6009 10.5022 19.0962V10.5178H12.363C12.4468 10.5068 12.5312 10.5009 12.6157 10.5003H19.2501C19.7147 10.5018 20.1597 10.6875 20.4876 11.0166C20.8156 11.3457 20.9997 11.7914 20.9997 12.256V18.8797C21.005 19.1581 20.9545 19.4348 20.8512 19.6934C20.7479 19.952 20.5939 20.1873 20.3982 20.3854C20.2025 20.5835 19.9692 20.7404 19.7119 20.8469C19.4546 20.9533 19.1786 21.0072 18.9002 21.0053L12.4051 20.9994Z" fill="white"/>
</svg>